<?xml version="1.0" standalone="no"?>
<!DOCTYPE svg PUBLIC "-//W3C//DTD SVG 20010904//EN"
 "http://www.w3.org/TR/2001/REC-SVG-20010904/DTD/svg10.dtd">
<svg version="1.0" xmlns="http://www.w3.org/2000/svg"
 width="1196.000000pt" height="1196.000000pt" viewBox="0 0 1196.000000 1196.000000"
 preserveAspectRatio="xMidYMid meet">
<metadata>
Created by potrace 1.14, written by Peter Selinger 2001-2017
</metadata>
<g transform="translate(0.000000,1196.000000) scale(0.100000,-0.100000)"
fill="#000000" stroke="none">
<path d="M4178 11492 c-42 -5 -52 -26 -55 -125 -2 -94 -9 -162 -20 -207 -3
-14 -7 -43 -8 -65 -1 -22 -3 -45 -4 -51 -1 -7 -63 -10 -191 -9 -221 1 -195 20
-205 -145 -3 -58 -8 -118 -11 -135 -3 -16 -7 -48 -9 -70 -8 -64 -15 -107 -19
-114 -3 -4 -8 -36 -11 -71 -4 -36 -11 -71 -17 -77 -6 -7 -8 -13 -5 -13 2 0 -4
-33 -15 -72 -11 -40 -21 -84 -24 -98 -6 -30 -87 -270 -109 -322 -8 -21 -16
-41 -17 -45 -2 -8 -36 -81 -93 -195 -48 -98 -145 -258 -157 -258 -5 0 -7 -4
-4 -9 3 -5 -8 -26 -24 -46 -17 -21 -30 -34 -30 -29 0 5 -5 2 -10 -6 -5 -8 -13
-16 -17 -16 -26 -5 -53 -18 -53 -25 0 -5 -8 -9 -17 -9 -9 0 -13 -3 -10 -7 9
-8 -24 -32 -44 -33 -9 0 -20 -7 -23 -16 -4 -9 -13 -14 -22 -10 -8 3 -13 2 -10
-3 3 -5 -16 -19 -42 -32 -26 -13 -48 -27 -50 -31 -2 -5 -10 -8 -18 -8 -8 0
-14 -4 -14 -10 0 -5 -9 -10 -20 -10 -11 0 -20 -4 -20 -10 0 -5 -16 -12 -35
-16 -19 -3 -39 -12 -46 -20 -6 -8 -15 -14 -20 -14 -5 0 -32 -11 -61 -24 -93
-42 -130 -56 -149 -56 -11 0 -19 -4 -19 -9 0 -4 -21 -11 -46 -14 -26 -2 -50
-10 -54 -17 -4 -6 -10 -11 -14 -10 -10 2 -69 -10 -91 -20 -24 -10 -220 -48
-290 -56 -27 -3 -53 -8 -57 -10 -5 -3 -50 -7 -101 -10 -50 -3 -103 -9 -117
-13 -14 -4 -35 -7 -47 -5 -19 3 -23 -2 -29 -34 -9 -48 -8 -342 1 -364 6 -14 2
-18 -19 -19 -14 -1 -29 -2 -33 -3 -10 -3 -89 -16 -123 -21 -14 -2 -43 -6 -65
-9 -22 -3 -71 -8 -109 -11 -38 -3 -72 -7 -74 -10 -4 -4 -6 -1784 -3 -1831 1
-12 104 -12 221 1 36 4 72 7 80 7 8 0 40 4 70 8 119 19 196 30 225 34 64 9
169 27 175 31 3 2 20 7 36 10 16 3 52 10 79 16 28 6 65 13 83 16 18 3 35 9 38
14 3 5 15 9 26 9 12 0 35 4 52 9 17 5 51 15 76 22 25 6 61 17 81 25 20 7 39
10 43 7 3 -4 6 -1 6 5 0 7 9 12 20 12 10 0 50 11 87 25 37 14 88 33 113 41 25
8 64 24 87 35 24 10 49 19 57 19 8 0 18 5 21 10 3 6 15 10 26 10 10 0 19 5 19
10 0 6 5 10 11 10 16 0 256 117 291 141 14 11 33 19 42 19 9 0 16 5 16 10 0 6
7 10 15 10 8 0 15 5 15 10 0 6 5 10 11 10 11 0 198 121 221 143 7 7 29 24 48
37 34 24 48 35 92 73 12 9 25 17 29 17 12 0 14 -244 17 -2100 1 -921 5 -1706
7 -1745 10 -146 23 -283 30 -305 5 -17 11 -53 20 -124 6 -49 15 -91 55 -269
24 -110 86 -321 106 -365 8 -18 17 -40 19 -50 4 -22 28 -87 48 -132 8 -19 25
-57 37 -85 37 -82 43 -100 42 -107 -1 -5 2 -8 7 -8 7 0 14 -14 25 -50 4 -15
122 -230 153 -278 82 -131 224 -332 268 -378 5 -6 35 -40 65 -74 73 -84 271
-280 282 -280 5 0 6 -5 3 -10 -4 -6 -2 -9 3 -8 5 2 25 -10 44 -27 56 -50 149
-119 238 -179 47 -31 90 -59 95 -63 6 -5 24 -15 40 -23 17 -8 32 -17 35 -20 9
-9 84 -51 113 -63 15 -6 27 -15 27 -20 0 -4 4 -6 9 -2 5 3 16 -2 25 -10 8 -9
18 -15 21 -15 3 0 26 -8 51 -20 26 -11 53 -20 60 -20 8 0 14 -4 14 -10 0 -5 6
-10 13 -10 7 0 32 -9 55 -20 22 -11 48 -20 57 -20 8 0 23 -4 33 -9 45 -23 143
-54 210 -67 17 -4 32 -11 32 -17 0 -6 3 -8 6 -5 3 4 20 2 37 -3 18 -5 57 -13
87 -19 86 -15 114 -20 129 -26 25 -9 145 -24 231 -30 47 -3 102 -10 124 -14
48 -11 490 -10 531 1 16 4 62 10 100 13 75 6 213 22 258 31 15 3 39 8 55 11
32 6 54 10 102 18 19 3 73 15 120 27 47 11 97 23 113 26 15 3 30 9 33 14 3 5
18 9 35 9 16 0 29 4 29 8 0 5 23 14 50 21 28 7 68 21 90 32 21 10 46 19 55 19
8 0 15 5 15 10 0 6 7 10 16 10 9 0 54 18 101 40 47 22 89 40 93 40 3 0 43 20
88 44 45 24 82 41 82 38 0 -4 4 -2 8 3 4 6 28 22 55 35 26 14 47 28 47 32 0 5
9 8 20 8 11 0 20 4 20 8 0 5 11 14 25 20 14 7 31 17 38 22 7 6 41 29 77 51 36
23 67 45 68 50 2 5 10 9 17 9 7 0 15 3 17 8 2 4 30 27 63 52 33 25 71 55 85
67 32 28 65 56 113 96 83 70 273 270 339 357 54 71 117 132 129 124 5 -3 8 -1
7 4 -2 6 2 12 7 13 6 2 28 23 49 46 22 23 44 39 50 36 6 -3 8 -3 4 2 -4 4 16
32 45 61 64 67 79 84 73 84 -3 0 6 11 20 25 14 14 29 25 34 25 6 0 10 6 10 13
0 7 8 20 18 29 25 24 44 48 37 48 -3 0 6 11 20 25 14 14 25 30 25 35 0 5 11
21 25 35 14 14 22 25 18 25 -4 0 -3 4 2 8 14 10 54 68 57 83 2 7 11 23 22 35
10 12 17 25 16 29 -1 4 8 15 19 24 11 10 18 21 14 25 -3 3 -2 6 3 6 6 0 23 27
39 60 16 33 33 60 39 60 5 0 6 3 3 7 -4 3 -1 13 7 22 7 9 21 37 31 64 10 26
22 47 27 47 5 0 7 4 3 9 -3 5 0 13 6 16 5 4 8 13 5 21 -3 8 -2 14 2 14 9 0 48
81 44 93 -1 4 3 7 10 7 6 0 8 3 5 6 -3 4 0 16 8 28 8 11 15 28 15 37 0 9 7 30
15 45 8 16 15 37 15 47 0 9 4 17 9 17 5 0 8 6 8 13 -1 13 9 50 51 187 14 47
26 92 27 100 0 8 3 20 6 25 6 10 13 41 25 119 3 21 8 48 11 60 2 11 6 31 8 43
2 12 6 34 9 50 4 15 8 53 11 83 2 30 8 73 11 95 10 59 12 630 2 716 -4 41 -10
94 -13 118 -5 45 -13 103 -19 136 -2 11 -7 40 -11 65 -9 57 -11 65 -25 125 -7
28 -14 60 -15 72 -2 11 -8 36 -14 55 -33 105 -41 133 -41 149 0 10 -5 30 -12
46 -6 15 -12 30 -13 33 0 3 -8 28 -18 55 -9 28 -16 52 -15 55 0 3 -9 24 -21
48 -12 23 -19 42 -17 42 2 0 -9 27 -25 60 -16 33 -29 65 -29 70 0 6 -4 18 -10
28 -22 40 -74 158 -72 165 1 4 -3 7 -10 7 -6 0 -9 3 -5 6 3 3 -23 55 -58 115
-35 60 -64 112 -65 114 -3 15 -36 65 -43 65 -5 0 -5 5 -2 10 3 6 1 10 -4 10
-6 0 -11 7 -11 15 0 8 -4 15 -8 15 -5 0 -17 16 -28 35 -10 19 -23 35 -28 35
-5 0 -7 3 -3 6 3 3 2 11 -3 18 -5 6 -28 34 -50 61 -69 84 -75 92 -90 116 -8
12 -33 43 -55 68 -22 25 -44 51 -50 58 -5 7 -15 19 -22 27 -6 7 -9 17 -5 21 4
4 2 5 -4 3 -5 -1 -50 36 -100 84 -49 47 -103 100 -121 116 -18 16 -29 33 -25
37 4 5 2 5 -4 2 -7 -4 -26 9 -43 28 -17 19 -33 35 -36 35 -13 -1 -74 47 -68
53 3 4 0 7 -8 7 -9 0 -24 8 -35 18 -10 10 -35 28 -54 42 -19 13 -37 27 -40 30
-3 3 -18 12 -35 20 -29 15 -54 33 -81 58 -7 7 -16 12 -20 11 -3 0 -16 7 -28
17 -12 11 -29 20 -36 22 -7 2 -26 12 -41 23 -15 10 -34 19 -42 19 -9 0 -18 4
-21 8 -6 10 -160 86 -208 103 -21 7 -38 17 -38 21 0 4 -8 8 -18 8 -10 0 -22 3
-25 7 -13 12 -266 99 -332 113 -22 5 -80 18 -129 30 -49 11 -110 23 -135 26
-25 3 -48 9 -51 13 -3 3 -18 6 -35 5 -16 0 -40 3 -51 7 -12 4 -66 11 -120 14
-55 4 -115 10 -134 14 -47 9 -362 7 -480 -4 -52 -5 -106 -9 -120 -10 -14 -1
-50 -5 -80 -10 -30 -5 -66 -9 -80 -10 -32 -1 -54 -15 -67 -40 -9 -19 -11 -342
-2 -375 2 -9 -4 -15 -16 -16 -117 -8 -205 -15 -230 -19 -16 -3 -50 -7 -75 -9
-71 -7 -110 -18 -111 -30 -1 -6 -3 -448 -3 -983 -2 -939 -1 -972 17 -977 10
-2 28 -2 40 0 54 11 89 15 197 20 63 4 126 6 140 6 47 1 250 -12 273 -17 12
-3 35 -7 51 -10 98 -15 215 -45 286 -72 8 -3 22 -7 30 -9 20 -4 194 -87 250
-120 69 -40 178 -124 249 -192 35 -34 61 -62 58 -62 -4 0 8 -15 27 -32 44 -43
137 -178 130 -189 -3 -5 0 -9 6 -9 6 0 16 -12 22 -27 7 -16 19 -39 28 -53 16
-24 56 -122 52 -128 -2 -1 4 -15 13 -31 8 -16 26 -71 39 -122 48 -181 55 -244
51 -454 -2 -99 -6 -191 -9 -205 -3 -14 -8 -38 -11 -55 -15 -76 -58 -241 -66
-249 -5 -6 -9 -16 -9 -22 0 -7 -5 -25 -12 -41 -6 -15 -12 -33 -13 -38 -8 -34
-63 -120 -76 -117 -8 1 -25 -7 -37 -18 -12 -11 -27 -20 -34 -20 -7 0 -31 -9
-53 -19 -90 -44 -166 -73 -230 -87 -5 -1 -35 -9 -65 -17 -30 -9 -73 -19 -95
-22 -22 -4 -60 -10 -85 -14 -59 -9 -394 -6 -411 4 -7 5 -31 10 -53 11 -23 2
-59 8 -81 14 -136 37 -277 88 -287 104 -4 6 -8 7 -8 3 0 -9 -143 64 -148 76
-2 4 -10 7 -18 7 -8 0 -14 5 -14 10 0 6 -6 10 -12 10 -7 0 -29 14 -48 30 -19
16 -39 30 -43 30 -5 0 -5 5 -2 10 3 6 0 10 -8 10 -15 0 -207 179 -207 194 0 4
-11 17 -25 28 -14 11 -23 23 -21 27 3 4 -4 14 -15 21 -10 8 -19 20 -19 26 0 6
-11 23 -26 39 -14 15 -23 29 -20 32 3 3 -4 15 -16 27 -11 11 -39 60 -63 108
-43 85 -51 110 -70 208 -4 19 -8 40 -9 45 -2 6 -6 33 -10 60 -9 59 -13 82 -21
115 -3 14 -7 72 -10 130 -3 58 -8 116 -12 130 -4 14 -7 1662 -8 3663 -1 3174
-3 3639 -15 3647 -8 6 -24 10 -35 10 -71 3 -1715 4 -1737 2z"/>
</g>
</svg>
